<?xml version="1.0" encoding="utf-8"?>
<!-- Generator: Adobe Illustrator 16.0.0, SVG Export Plug-In . SVG Version: 6.00 Build 0)  -->
<!DOCTYPE svg PUBLIC "-//W3C//DTD SVG 1.1//EN" "http://www.w3.org/Graphics/SVG/1.1/DTD/svg11.dtd">
<svg version="1.1" id="Layer_1" xmlns="http://www.w3.org/2000/svg" xmlns:xlink="http://www.w3.org/1999/xlink" x="0px" y="0px"
	 width="225.719px" height="161.146px" viewBox="0 0 225.719 161.146" enable-background="new 0 0 225.719 161.146"
	 xml:space="preserve">
<g>
	<g>
		<path fill="#FFFFFF" d="M25.603,60.821c0.619-0.505,3.38-2.615,0.139-0.152c0.835-0.635,1.689-1.241,2.545-1.849
			c1.787-1.271,3.631-2.457,5.487-3.621c4.35-2.727,8.893-5.138,13.5-7.395c2.263-1.107,4.56-2.143,6.865-3.152
			c3.919-1.719-2.824,1.146,1.181-0.481c1.215-0.493,2.438-0.963,3.661-1.433c5.438-2.088,10.984-3.89,16.576-5.52
			c5.278-1.536,10.627-2.82,16.008-3.941c2.698-0.562,5.412-1.044,8.131-1.495c1.355-0.226,2.716-0.422,4.075-0.618
			c-3.431,0.495,2.207-0.229,2.798-0.291c10.914-1.166,21.965-1.221,32.863,0.114c-3.769-0.462,0.367,0.113,0.955,0.213
			c1.213,0.205,2.419,0.455,3.624,0.706c2.363,0.491,4.694,1.117,7.009,1.797c2.254,0.662,4.463,1.469,6.648,2.331
			c-3.545-1.399,0.015,0.062,0.625,0.35c1.367,0.646,2.692,1.375,4.01,2.116c1.951,1.099,3.805,2.355,5.615,3.668
			c3.653,2.65-2.167-1.842,1.294,0.979c1.043,0.851,2.036,1.76,3.027,2.668c1.961,1.794,3.766,3.751,5.512,5.751
			c0.248,0.283,2.924,3.71,0.938,1.082c1.057,1.396,2.027,2.856,2.985,4.323c1.438,2.202,2.715,4.508,3.938,6.836
			c0.614,1.168,1.176,2.362,1.736,3.558c1.861,3.961-1.069-2.778,0.572,1.291c2.173,5.39,3.767,11.002,5.062,16.66
			c0.606,2.645,1.085,5.315,1.527,7.992c0.068,0.411,0.663,4.887,0.223,1.403c0.171,1.354,0.306,2.709,0.44,4.064
			c0.582,5.857,0.767,11.751,0.746,17.635c-0.019,4.88-0.274,9.756-0.651,14.62c-0.167,2.152-0.388,4.301-0.622,6.447
			c-0.138,1.265-0.298,2.525-0.458,3.788c0.479-3.769-0.077,0.368-0.166,0.955c-1.219,8.077,1.9,16.093,10.478,18.45
			c7.166,1.973,17.229-2.378,18.452-10.477c7.167-47.501,2.46-102.078-38.778-133.128C166.446,3.721,143.03-0.163,121.342,0.005
			C97.907,0.186,74.173,5.25,52.241,13.344C34.989,19.712,18.675,27.952,4.39,39.608c-6.344,5.176-5.342,15.871,0,21.213
			C10.605,67.036,19.274,65.985,25.603,60.821L25.603,60.821z"/>
	</g>
</g>
</svg>
